<svg id="FAQ" xmlns="http://www.w3.org/2000/svg" width="20" height="20" viewBox="0 0 20 20">
  <path id="Path_23" data-name="Path 23" d="M0,0H20V20H0Z" fill="none"/>
  <path id="Path_24" data-name="Path 24" d="M17.833,5.333H16.167v7.5H5.333V14.5a.836.836,0,0,0,.833.833h9.167l3.333,3.333V6.167A.836.836,0,0,0,17.833,5.333Zm-3.333,5v-7.5A.836.836,0,0,0,13.667,2H2.833A.836.836,0,0,0,2,2.833V14.5l3.333-3.333h8.333A.836.836,0,0,0,14.5,10.333Z" transform="translate(-0.333 -0.333)" fill="#fff"/>
</svg>
