<svg id="Brand" xmlns="http://www.w3.org/2000/svg" width="20" height="20" viewBox="0 0 20 20">
  <path id="Path_10" data-name="Path 10" d="M0,0H20V20H0Z" fill="none"/>
  <path id="Path_11" data-name="Path 11" d="M18.175,9.983l-7.5-7.5A1.656,1.656,0,0,0,9.5,2H3.667A1.672,1.672,0,0,0,2,3.667V9.5a1.663,1.663,0,0,0,.492,1.183l7.5,7.5a1.656,1.656,0,0,0,1.175.483,1.629,1.629,0,0,0,1.175-.492l5.833-5.833a1.629,1.629,0,0,0,.492-1.175A1.683,1.683,0,0,0,18.175,9.983ZM4.917,6.167a1.25,1.25,0,1,1,1.25-1.25A1.248,1.248,0,0,1,4.917,6.167Zm9.808,6.892-3.558,3.558L7.608,13.058A2.086,2.086,0,0,1,9.083,9.5a2.058,2.058,0,0,1,1.475.617l.608.6.608-.608a2.086,2.086,0,0,1,2.95,2.95Z" transform="translate(-0.333 -0.333)" fill="#fff"/>
</svg>
