<svg xmlns="http://www.w3.org/2000/svg" xmlns:xlink="http://www.w3.org/1999/xlink" width="54" height="53.05" viewBox="0 0 54 53.05">
  <defs>
    <filter id="Path_15" x="0" y="0" width="54" height="53.05" filterUnits="userSpaceOnUse">
      <feOffset dy="3" input="SourceAlpha"/>
      <feGaussianBlur stdDeviation="5" result="blur"/>
      <feFlood flood-opacity="0.102"/>
      <feComposite operator="in" in2="blur"/>
      <feComposite in="SourceGraphic"/>
    </filter>
  </defs>
  <g id="Favorite" transform="translate(15 11)">
    <path id="Path_14" data-name="Path 14" d="M0,0H24V24H0Z" fill="none"/>
    <g transform="matrix(1, 0, 0, 1, -15, -11)" filter="url(#Path_15)">
      <g id="Path_15-2" data-name="Path 15" transform="translate(15 11)" fill="#acaec8">
        <path d="M 11.99744987487793 22.69997978210449 L 11.32682037353516 22.08947944641113 L 9.876819610595703 20.76947975158691 L 9.865579605102539 20.75929069519043 C 7.310860157012939 18.44268035888672 5.104519844055176 16.44198036193848 3.565829992294312 14.55965042114258 C 1.815310001373291 12.41816997528076 1 10.4926700592041 1 8.5 C 1 6.743260383605957 1.670469999313354 5.105319976806641 2.887890100479126 3.887890100479126 C 4.105319976806641 2.670470237731934 5.743259906768799 2.000000238418579 7.5 2.000000238418579 C 9.135000228881836 2.000000238418579 10.75276374816895 2.614633083343506 12 3.679896831512451 C 13.24723625183105 2.614633083343506 14.86499977111816 2.000000238418579 16.5 2.000000238418579 C 18.25674057006836 2.000000238418579 19.89468002319336 2.670470237731934 21.11211013793945 3.887890100479126 C 22.32953071594238 5.105319976806641 23 6.743260383605957 23 8.5 C 23 10.48929977416992 22.18734931945801 12.41193008422852 20.44255065917969 14.55062007904053 C 18.90876960754395 16.43066024780273 16.70906066894531 18.42960929870605 14.16201019287109 20.74419975280762 L 14.12252998352051 20.78006935119629 L 12.67037963867188 22.09202003479004 L 11.99744987487793 22.69997978210449 Z" stroke="none"/>
        <path d="M 12 21.35000038146973 L 13.44999980926514 20.04000091552734 C 18.60000038146973 15.36000061035156 22 12.27999973297119 22 8.5 C 22 5.420000076293945 19.57999992370605 3.000000238418579 16.5 3.000000238418579 C 14.76000022888184 3.000000238418579 13.09000015258789 3.81000018119812 12 5.090000152587891 C 10.90999984741211 3.81000018119812 9.239999771118164 3.000000238418579 7.5 3.000000238418579 C 4.420000076293945 3.000000238418579 2 5.420000076293945 2 8.5 C 2 12.27999973297119 5.400000095367432 15.36000061035156 10.55000019073486 20.03000068664551 L 12 21.35000038146973 M 11.9948902130127 24.04996109008789 L 10.653639793396 22.82896041870117 L 9.203639984130859 21.50896072387695 L 9.193840026855469 21.50008010864258 C 6.60945987701416 19.15657043457031 4.377510070800781 17.13265037536621 2.791589975357056 15.19254016876221 C 0.8870499730110168 12.86264038085938 -1.77635683940025e-15 10.73604011535645 -1.77635683940025e-15 8.5 C -1.77635683940025e-15 6.476150035858154 0.7744799852371216 4.587090015411377 2.180789947509766 3.180790185928345 C 3.587090015411377 1.774480223655701 5.476150035858154 1.000000238418579 7.5 1.000000238418579 C 9.098798751831055 1.000000238418579 10.68266582489014 1.512635111808777 12 2.421235084533691 C 13.31733417510986 1.512635111808777 14.90120124816895 1.000000238418579 16.5 1.000000238418579 C 18.52384948730469 1.000000238418579 20.41291046142578 1.774480223655701 21.81921005249023 3.180790185928345 C 23.22551918029785 4.587090015411377 24 6.476150035858154 24 8.5 C 24 10.7322998046875 23.11581039428711 12.85579013824463 21.21739959716797 15.18276977539063 C 19.6364803314209 17.12058067321777 17.41119956970215 19.14277076721191 14.83454036712646 21.4842700958252 L 14.79506015777588 21.52013969421387 L 14.79290962219238 21.52209091186523 L 14.79074954986572 21.52404022216797 L 13.34074974060059 22.83403968811035 L 11.9948902130127 24.04996109008789 Z" stroke="none" fill="#fff"/>
      </g>
    </g>
  </g>
</svg>
